<svg width="89" height="16" viewBox="0 0 89 16" fill="none" xmlns="http://www.w3.org/2000/svg">
<path d="M8.75 0L10.913 5.02282L16.3585 5.52786L12.2499 9.13718L13.4523 14.4721L8.75 11.68L4.04772 14.4721L5.25011 9.13718L1.14155 5.52786L6.58695 5.02282L8.75 0Z" fill="#F5BF00"/>
<path d="M26.75 0L28.913 5.02282L34.3585 5.52786L30.2499 9.13718L31.4523 14.4721L26.75 11.68L22.0477 14.4721L23.2501 9.13718L19.1415 5.52786L24.587 5.02282L26.75 0Z" fill="#F5BF00"/>
<path d="M44.75 0L46.913 5.02282L52.3585 5.52786L48.2499 9.13718L49.4523 14.4721L44.75 11.68L40.0477 14.4721L41.2501 9.13718L37.1415 5.52786L42.587 5.02282L44.75 0Z" fill="#F5BF00"/>
<path d="M62.75 0L64.913 5.02282L70.3585 5.52786L66.2499 9.13718L67.4523 14.4721L62.75 11.68L58.0477 14.4721L59.2501 9.13718L55.1415 5.52786L60.587 5.02282L62.75 0Z" fill="#F5BF00"/>
<path d="M80.75 0L82.913 5.02282L88.3585 5.52786L84.2499 9.13718L85.4523 14.4721L80.75 11.68L76.0477 14.4721L77.2501 9.13718L73.1415 5.52786L78.587 5.02282L80.75 0Z" fill="#F5BF00"/>
</svg>
